<?xml version="1.0" encoding="UTF-8"?>
<svg id="Layer_1" xmlns="http://www.w3.org/2000/svg" version="1.1" viewBox="0 0 202.3 78">
  <!-- Generator: Adobe Illustrator 29.8.2, SVG Export Plug-In . SVG Version: 2.1.1 Build 3)  -->
  <defs>
    <style>
      .st0 {
        fill: #663695;
      }

      .st1 {
        fill: #dc1e3d;
      }

      .st2 {
        fill: #0a0a0a;
      }
    </style>
  </defs>
  <polygon class="st2" points="83.2 23.4 83.2 55.7 107.8 55.7 107.8 45.5 94.2 45.5 105.2 34.4 122.5 34.4 122.5 57.2 111.5 70.4 79.5 70.4 68.5 59.4 68.5 19.6 79.5 8.5 109.9 8.5 122.8 23.4 83.2 23.4"/>
  <polygon class="st2" points="14.5 70.4 29.2 55.7 50.1 55.7 49.8 23.2 10.9 23.2 10.9 8.5 53.8 8.5 64.8 19.6 64.8 59.4 53.8 70.4 14.5 70.4"/>
  <polygon class="st2" points="137.2 8.5 164.3 39.6 137.3 70.4 118.1 70.4 143.8 39.6 116.7 8.5 137.2 8.5"/>
  <polygon class="st2" points="25.6 29.9 25.6 52 10.9 66.7 10.9 26.9 25.6 29.9"/>
  <g>
    <polygon class="st0" points="164.4 31.8 167.8 35.7 191.4 8.5 170.9 8.5 157.5 23.9 164.4 31.8"/>
    <polygon class="st1" points="157.5 55.3 170.8 70.4 190 70.4 167.7 43.7 157.5 55.3"/>
  </g>
</svg>