<?xml version="1.0" encoding="UTF-8"?>
<svg id="Layer_1" data-name="Layer 1" xmlns="http://www.w3.org/2000/svg" viewBox="0 0 334.14 168.61">
  <defs>
    <style>
      .cls-1, .cls-2 {
        fill: #025da4;
      }

      .cls-3 {
        fill: #d42a27;
      }

      .cls-4 {
        fill: #025a9f;
      }

      .cls-2 {
        font-family: Times-Roman, Times;
        font-size: 39.68px;
        letter-spacing: -.04em;
      }
    </style>
  </defs>
  <path class="cls-3" d="M18.99,114.39c-2.3-.28-11.32-14.76-12.62-17.54C-16.64,47.53,26.2-5.77,78.22.51c0,0-9.81,3.08-15.53,8.95-10.35,10.63-10.23,26.13-.88,37.94l5.41,6.09c-30.52-2.9-48.98,14.28-50.98,37.52-.67,7.78.98,17.53,2.75,23.38Z"/>
  <polygon class="cls-4" points="106.23 62.49 112.36 86.54 120.23 62.49 143.73 62.49 143.73 109.49 126.23 109.49 126.23 81.49 116.41 109.49 108.21 109.49 98.23 84.49 98.23 109.49 82.23 109.49 82.23 62.49 106.23 62.49"/>
  <path class="cls-4" d="M72.23,62.49v13h-18.5c-2.02,0-3.44.88-3.38,2.62.07,1.93,1.64,2.42,3.44,2.6,4.53.45,12.27,1.82,14.72,3.01,6.51,3.17,7.43,16.23,2.77,21.31-.66.72-4.4,4.05-9.54,4.46h-26.52v-12h19.52c3.98-.25,3.75-5.44.35-5.86-1.69-.21-12.72-.91-16.43-2.06-7.41-2.31-6.79-14.46-4.67-19.82,1.95-4.93,7.29-7.26,9.74-7.26h28.5Z"/>
  <path class="cls-4" d="M75.97,8.74c27.86-4.81,32.86,35.31,8.53,39.51-28,4.83-32.65-35.34-8.53-39.51Z"/>
  <text class="cls-2" transform="translate(1.77 158.69)"><tspan x="0" y="0">PT. SINDO MARINE</tspan></text>
  <circle class="cls-1" cx="23.82" cy="120.04" r="7.43"/>
</svg>