<?xml version="1.0" encoding="UTF-8"?>
<svg id="Layer_1" xmlns="http://www.w3.org/2000/svg" version="1.1" viewBox="0 0 32 32">
  <!-- Generator: Adobe Illustrator 29.8.2, SVG Export Plug-In . SVG Version: 2.1.1 Build 3)  -->
  <defs>
    <style>
      .st0 {
        fill: #005da3;
      }

      .st1 {
        fill: #005a9f;
      }

      .st2 {
        fill: #d42927;
      }
    </style>
  </defs>
  <path class="st2" d="M6.9,24.7c-.4,0-1.9-2.5-2.2-3C.8,13.2,8.2,4.1,17.1,5.2c0,0-1.7.5-2.7,1.5-1.8,1.8-1.8,4.5-.2,6.5l.9,1c-5.2-.5-8.4,2.4-8.7,6.4s.2,3,.5,4Z"/>
  <polygon class="st1" points="21.9 15.8 22.9 19.9 24.3 15.8 28.3 15.8 28.3 23.8 25.3 23.8 25.3 19 23.6 23.8 22.2 23.8 20.5 19.6 20.5 23.8 17.8 23.8 17.8 15.8 21.9 15.8"/>
  <path class="st1" d="M16.1,15.8v2.2h-3.2c-.3,0-.6.2-.6.4s.3.4.6.4c.8,0,2.1.3,2.5.5,1.1.5,1.3,2.8.5,3.7s-.8.7-1.6.8h-4.5v-2.1h3.3c.7,0,.6-.9,0-1-.3,0-2.2-.2-2.8-.4-1.3-.4-1.2-2.5-.8-3.4s1.3-1.2,1.7-1.2h4.9Z"/>
  <path class="st1" d="M16.7,6.6c4.8-.8,5.6,6.1,1.5,6.8s-5.6-6.1-1.5-6.8Z"/>
  <circle class="st0" cx="7.8" cy="25.7" r="1.3"/>
</svg>